HIERARCHY
ROOT Hips
{
	OFFSET 0.00000 0.00000 0.00000
	CHANNELS 6 Xposition Yposition Zposition Yrotation Zrotation Xrotation 
	JOINT Lumbar
	{
		OFFSET 0 0 0
		CHANNELS 3 Zrotation Xrotation Yrotation
		JOINT Neck
		{
			OFFSET 0.00 0.2701 0.00
			CHANNELS 3 Zrotation Xrotation Yrotation
			End Site
			{
				OFFSET 0.00 0.1379 0.00
			}
		}
		JOINT RightShoulder
		{
			OFFSET 0.0119 0.2289 0.1181
			CHANNELS 3 Zrotation Xrotation Yrotation
			JOINT RightElbow
			{
				OFFSET 0.00 -0.1475 0.00
				CHANNELS 2 Zrotation Yrotation
				JOINT RightWrist
				{
					OFFSET 0.00 -0.1605 0.00
					CHANNELS 2 Zrotation Xrotation
					End Site
					{
						OFFSET 0.0040 -0.1068 0.0006
					}
				}
			}
		}
		JOINT LeftShoulder
		{
			OFFSET 0.0119 0.2289 -0.1181
			CHANNELS 3 Zrotation Xrotation Yrotation
			JOINT LeftElbow
			{
				OFFSET 0.00 -0.1475 0.00
				CHANNELS 2 Zrotation Yrotation
				JOINT LeftWrist
				{
					OFFSET 0.00 -0.1605 0.00
					CHANNELS 2 Zrotation Xrotation
					End Site
					{
						OFFSET 0.0040 -0.1068 -0.0006
					}
				}
			}
		}
	}
	JOINT RightHip
	{
		OFFSET 0.0316 -0.0424 0.0458
		CHANNELS 3 Zrotation Xrotation Yrotation
		JOINT RightKnee
		{
			OFFSET 0.00 -0.2438 0.00
			CHANNELS 1 Zrotation
			JOINT RightAnkle
			{
				OFFSET 0.00 -0.2449 0.00
				CHANNELS 3 Zrotation Xrotation Yrotation
				End Site
				{
					OFFSET 0.1237 -0.0542 0.0051
				}
			}
		}
	}
	JOINT LeftHip
	{
		OFFSET 0.0316 -0.0424 -0.0458
		CHANNELS 3 Zrotation Xrotation Yrotation
		JOINT LeftKnee
		{
			OFFSET 0.00 -0.2438 0.00
			CHANNELS 1 Zrotation
			JOINT LeftAnkle
			{
				OFFSET 0.00 -0.2449 0.00
				CHANNELS 3 Zrotation Xrotation Yrotation
				End Site
				{
					OFFSET 0.1237 -0.0542 -0.0051
				}
			}
		}
	}
}
MOTION
Frames: 31
Frame Time: 0.02
-0.00013 -8e-05 -0.0002 24.32924 -32.20361 -4.44146 49.26882 1.61371 -7.18202 9.85811 -3.893 -0.62253 -12.38202 -5.38511 -13.69596 34.24235 121.42869 13.94755 6.42269 11.75754 5.52666 0.10787 44.64187 -91.84485 5.17865 -1.86295 42.7597 -0.94805 -8.11875 -19.23393 -6.32024 -3.33907 -3.85505 48.29427 4.43903 7.59611 -25.2239 -6.203 1.51165 2.96256
-0.00029 -0.00011 5e-05 24.08833 -32.14332 -4.4525 49.27568 1.61741 -7.14861 9.47899 -3.63785 -0.62561 -12.72129 -5.46419 -13.51998 34.20742 121.22952 13.83891 6.41369 9.24201 6.11325 -0.29475 44.5245 -92.79066 5.80081 -1.90617 42.75201 -0.97885 -8.47301 -19.25542 -6.30101 -3.29272 -3.8287 48.24737 4.48315 7.63885 -25.22394 -6.2042 1.5273 2.9695
-0.00044 -0.00014 0.0003 23.84799 -32.08315 -4.4635 49.28252 1.62117 -7.11528 9.1005 -3.38325 -0.62869 -13.05985 -5.54281 -13.34571 34.17236 121.0307 13.73044 6.40471 6.73105 6.69691 -0.69282 44.40757 -93.74165 6.42462 -1.95038 42.74438 -1.00956 -8.8263 -19.27686 -6.28184 -3.24648 -3.80241 48.2006 4.52717 7.68155 -25.22397 -6.20541 1.54291 2.97643
-0.0006 -0.00016 0.00056 23.60779 -32.02304 -4.4745 49.28935 1.62487 -7.08198 8.72247 -3.12885 -0.63176 -13.39813 -5.6216 -13.17043 34.13752 120.83242 13.62222 6.39578 4.22273 7.28141 -1.0934 44.29056 -94.6864 7.04565 -1.99373 42.73672 -1.04027 -9.17949 -19.29829 -6.26267 -3.20026 -3.77613 48.15383 4.57116 7.72418 -25.22401 -6.2066 1.55851 2.98335
-0.00076 -0.00019 0.00081 23.36711 -31.96283 -4.48553 49.29621 1.6285 -7.04859 8.34401 -2.874 -0.63484 -13.73698 -5.70096 -12.99306 34.10281 120.63303 13.51362 6.38671 1.71109 7.86953 -1.50048 44.17313 -95.62143 7.66311 -2.03544 42.729 -1.07107 -9.5336 -19.31976 -6.24345 -3.15394 -3.7498 48.10693 4.61523 7.76682 -25.22407 -6.20779 1.57416 2.99029
-0.00092 -0.00022 0.00106 23.12751 -31.90276 -4.49649 49.30303 1.63251 -7.01536 7.96548 -2.61993 -0.63792 -14.07491 -5.77805 -12.82536 34.06701 120.43491 13.40528 6.37784 -0.79824 8.44394 -1.88 44.05726 -96.60502 8.29987 -2.08475 42.72157 -1.10158 -9.88514 -19.34114 -6.22437 -3.10788 -3.72362 48.06044 4.65915 7.80961 -25.22404 -6.20904 1.58967 2.99718
-0.00107 -0.00025 0.00131 22.88597 -31.84246 -4.50757 49.30989 1.63574 -6.9819 7.58754 -2.36459 -0.641 -14.41432 -5.85952 -12.63823 34.03361 120.23677 13.29728 6.36892 -3.30949 9.04454 -2.31264 43.93829 -97.49385 8.89865 -2.11935 42.71354 -1.13264 -10.24148 -19.36267 -6.20502 -3.06135 -3.69715 48.01316 4.70333 7.85209 -25.22419 -6.21017 1.60543 3.00416
-0.00123 -0.00027 0.00156 22.64627 -31.78239 -4.51854 49.31674 1.63972 -6.94857 7.20898 -2.11039 -0.64408 -14.75236 -5.93715 -12.4693 33.99769 120.03442 13.18759 6.35942 -5.81894 9.62237 -2.6998 43.82233 -98.4627 9.52962 -2.16637 42.70609 -1.16319 -10.59335 -19.38407 -6.18593 -3.01525 -3.67095 47.96665 4.74726 7.89481 -25.22417 -6.2114 1.62097 3.01106
-0.0014 -0.0003 0.00182 22.4085 -31.7225 -4.52937 49.32348 1.6445 -6.91571 6.82973 -1.85755 -0.64714 -15.08897 -6.00929 -12.32164 33.95984 119.84359 13.08122 6.35172 -8.32794 10.16694 -3.01698 43.70945 -99.56046 10.2121 -2.23336 42.69923 -1.19315 -10.94008 -19.40529 -6.16714 -2.96965 -3.64506 47.92089 4.79093 7.93802 -25.22396 -6.21277 1.63625 3.01786
-0.00153 -0.00033 0.00206 22.15863 -31.66127 -4.541 49.33058 1.64434 -6.88109 6.45463 -1.59676 -0.65026 -15.43454 -6.11062 -12.04868 33.93657 119.63655 12.97194 6.3412 -10.84491 10.88654 -3.6935 43.57701 -100.01021 10.63488 -2.19983 42.68863 -1.22662 -11.31739 -19.42751 -6.14657 -2.9211 -3.61735 47.87026 4.83624 7.97901 -25.22488 -6.21339 1.65305 3.02524
-0.00173 -0.00035 0.00232 21.93496 -31.60307 -4.55095 49.33707 1.65482 -6.84957 6.07076 -1.35287 -0.65327 -15.76067 -6.15192 -12.0418 33.88034 119.43176 12.85849 6.33178 -13.34107 11.24737 -3.63989 43.48704 -101.76632 11.58168 -2.36906 42.68617 -1.25261 -11.62949 -19.44764 -6.12977 -2.87882 -3.5935 47.83023 4.87802 8.02427 -25.22339 -6.21558 1.6666 3.03137
-0.00212 -0.00038 0.00263 21.77859 -31.55139 -4.55596 49.34059 1.69311 -6.83173 5.6624 -1.15475 -0.6559 -16.03733 -6.01401 -12.75985 33.75085 119.50614 12.82197 6.36672 -15.81272 10.52444 -1.32479 43.50453 -107.6551 14.18192 -3.17882 42.70408 -1.25857 -11.76649 -19.46179 -6.12311 -2.85372 -3.58006 47.81703 4.91052 8.08487 -25.21546 -6.22203 1.6714 3.03419
-0.00258 -0.00041 0.00296 21.64947 -31.50304 -4.55927 49.34365 1.74237 -6.81605 5.24541 -0.97385 -0.65847 -16.2935 -5.81862 -13.74682 33.58512 119.53981 12.76762 6.39618 -18.25623 9.45748 1.6806 43.56621 -114.7611 17.27094 -4.17773 42.73052 -1.25696 -11.83723 -19.47388 -6.12025 -2.83496 -3.57052 47.81489 4.93938 8.14912 -25.20508 -6.23007 1.6729 3.03572
-0.003 -0.00044 0.00328 21.51081 -31.45437 -4.56359 49.34789 1.7875 -6.796 4.83252 -0.78528 -0.66105 -16.55689 -5.65881 -14.61314 33.42474 119.40407 12.66023 6.39976 -20.693 8.61553 4.19541 43.61377 -120.94356 19.99244 -5.03367 42.75437 -1.25848 -11.93585 -19.48709 -6.11577 -2.81332 -3.55929 47.80921 4.96968 8.20931 -25.19572 -6.23743 1.67579 3.03777
-0.00343 -0.00047 0.00359 21.35993 -31.40082 -4.56709 49.34839 1.82898 -6.79026 4.41844 -0.59546 -0.66348 -16.83022 -5.45843 -15.47021 33.31108 120.03007 12.79969 6.51861 -23.21737 7.49195 7.43805 43.63681 -128.66363 23.31846 -6.12596 42.77289 -1.26122 -12.04402 -19.49956 -6.11085 -2.79163 -3.54769 47.79734 5.00099 8.27954 -25.18678 -6.24462 1.67913 3.0401
-0.00387 -0.0005 0.00393 21.24131 -31.358 -4.57166 49.35614 1.88074 -6.75524 4.00532 -0.41309 -0.66647 -17.07655 -5.32956 -16.4143 33.09169 119.09929 12.43489 6.40167 -25.54606 6.8622 9.35375 43.72071 -133.50523 25.51406 -6.77672 42.80445 -1.2597 -12.11627 -19.51305 -6.10774 -2.77162 -3.53783 47.80089 5.02922 8.32985 -25.17636 -6.25252 1.68076 3.04154
-0.00435 -0.00054 0.00431 21.20201 -31.34581 -4.58165 49.38764 1.9576 -6.63891 3.59272 -0.24076 -0.66894 -17.26561 -5.40786 -17.49479 32.58906 113.53955 10.56047 5.58673 -27.39534 7.77883 7.21336 43.96717 -129.78605 24.35458 -6.10989 42.87071 -1.2476 -12.1088 -19.52998 -6.10855 -2.75384 -3.53154 47.84514 5.05069 8.32283 -25.16249 -6.26202 1.67844 3.04083
-0.00484 -0.00059 0.00471 21.19487 -31.34396 -4.59233 49.42571 2.04452 -6.49317 3.18245 -0.07672 -0.67239 -17.42599 -5.56148 -18.65849 31.98208 106.47724 8.20167 4.54356 -29.03732 9.18666 3.7539 44.27208 -123.18491 22.061 -5.00166 42.94966 -1.23163 -12.06706 -19.54798 -6.11105 -2.73766 -3.52692 47.90438 5.06894 8.29569 -25.14721 -6.27216 1.67455 3.03928
-0.00534 -0.00063 0.00511 21.17497 -31.33616 -4.60145 49.45847 2.12727 -6.36067 2.77357 0.08727 -0.67676 -17.59134 -5.68279 -19.81168 31.422 100.32688 6.14465 3.63668 -30.74034 10.30422 1.04599 44.54703 -118.11089 20.36212 -4.12988 43.0223 -1.21777 -12.03865 -19.56541 -6.11286 -2.7213 -3.52175 47.95615 5.0882 8.27897 -25.13256 -6.28196 1.6714 3.03813
-0.00579 -0.00067 0.00548 21.14797 -31.3337 -4.61606 49.5013 2.2088 -6.22818 2.35295 0.26772 -0.67532 -17.7897 -5.79176 -20.86768 30.85973 93.21108 3.74322 2.59265 -32.58754 11.69012 -2.27476 44.8389 -112.16748 18.34843 -3.11415 43.09752 -1.20195 -12.01669 -19.58313 -6.11451 -2.70289 -3.51589 48.01095 5.10958 8.25785 -25.1179 -6.29201 1.66794 3.03684
-0.00633 -0.00072 0.00592 21.14333 -31.32258 -4.61908 49.52437 2.29499 -6.08942 1.95879 0.41094 -0.68628 -17.91319 -5.94786 -22.13146 30.28166 87.74584 1.94316 1.77946 -34.07915 12.6416 -4.64777 45.10753 -107.32721 16.71108 -2.28993 43.1703 -1.18966 -11.97495 -19.60052 -6.1168 -2.68899 -3.51176 48.06301 5.12542 8.23997 -25.10294 -6.30171 1.66488 3.03569
-0.00709 -0.00078 0.00652 21.19001 -31.28454 -4.59279 49.4941 2.39259 -5.93409 1.62605 0.46342 -0.73046 -17.83058 -6.1899 -24.05218 29.65178 87.25026 1.93399 1.66737 -34.69324 12.24639 -4.02842 45.30871 -106.29663 16.41966 -2.1106 43.23297 -1.18579 -11.87926 -19.61678 -6.12081 -2.68771 -3.51228 48.10256 5.13033 8.24568 -25.08766 -6.30997 1.66271 3.03471
-0.00793 -0.00085 0.00719 21.25841 -31.23749 -4.55423 49.44313 2.49428 -5.77467 1.32216 0.47677 -0.78716 -17.67298 -6.48038 -26.16618 29.01614 88.46522 2.54533 1.79521 -34.94617 11.40418 -2.4232 45.48225 -106.45917 16.53835 -2.13686 43.29273 -1.18607 -11.76671 -19.63265 -6.12532 -2.69078 -3.51442 48.13901 5.12914 8.25368 -25.07211 -6.31791 1.66113 3.03398
-0.00873 -0.00092 0.00784 21.31844 -31.19487 -4.51947 49.39988 2.59343 -5.62138 1.01213 0.50172 -0.83871 -17.55647 -6.76777 -28.11257 28.40532 88.86109 2.86407 1.80658 -35.33013 10.78554 -1.30717 45.66093 -106.03038 16.44737 -2.06262 43.35398 -1.18598 -11.66718 -19.6487 -6.12934 -2.69146 -3.51563 48.17772 5.12836 8.25404 -25.05662 -6.32621 1.65969 3.03342
-0.00953 -0.00099 0.00846 21.37337 -31.15123 -4.4924 49.36424 2.6959 -5.44903 0.67198 0.55311 -0.88825 -17.41729 -6.98397 -30.36702 27.69682 89.35755 3.20782 1.83654 -35.84896 10.09604 -0.0624 45.87278 -105.70704 16.41474 -2.00256 43.41506 -1.17935 -11.54349 -19.66488 -6.13451 -2.69398 -3.51774 48.21348 5.13731 8.28089 -25.04139 -6.33364 1.65643 3.03166
-0.01034 -0.00106 0.00914 21.44354 -31.1074 -4.44617 49.30743 2.7922 -5.31576 0.40234 0.53946 -0.94462 -17.29795 -7.35131 -32.06451 27.19211 90.09927 3.6567 1.89379 -36.00086 9.44353 1.16476 46.00848 -105.48742 16.37363 -1.96799 43.47551 -1.18736 -11.46695 -19.68057 -6.13741 -2.69364 -3.51832 48.2543 5.12476 8.25421 -25.02552 -6.3428 1.65717 3.03246
-0.01113 -0.00115 0.00997 21.55128 -31.06546 -4.35187 49.19977 2.87122 -5.29154 0.3123 0.36223 -1.01963 -17.34212 -8.19377 -31.81079 27.2491 90.83958 4.21254 1.91355 -35.25246 8.982 2.12002 45.93791 -105.25927 16.20782 -1.95265 43.53562 -1.23474 -11.52096 -19.69577 -6.13382 -2.68457 -3.51443 48.31081 5.0527 8.07106 -25.00869 -6.35669 1.66865 3.04034
-0.01192 -0.00125 0.01085 21.67319 -31.02343 -4.23833 49.07088 2.94371 -5.30668 0.29372 0.11967 -1.10062 -17.39559 -9.1761 -31.04158 27.51211 91.80968 4.85837 1.96122 -34.14302 8.57283 3.03125 45.79179 -105.11419 16.02675 -1.95903 43.59479 -1.29659 -11.62323 -19.71031 -6.12796 -2.67245 -3.50893 48.37215 4.95937 7.83485 -24.99128 -6.37236 1.68427 3.05083
-0.0127 -0.00134 0.01172 21.78809 -30.98146 -4.13242 48.95018 3.01863 -5.30415 0.24771 -0.0971 -1.17692 -17.38127 -10.0448 -30.76853 27.68324 92.87075 5.4896 2.03602 -33.18468 8.15285 3.95177 45.68184 -104.94117 15.85699 -1.95719 43.65412 -1.35201 -11.70692 -19.72464 -6.12319 -2.6615 -3.50401 48.43068 4.87705 7.62931 -24.97343 -6.38729 1.69798 3.06001
-0.01351 -0.00144 0.01255 21.90666 -30.93966 -4.03089 48.83547 3.09593 -5.30146 0.18143 -0.29855 -1.2617 -17.61844 -11.11512 -29.46314 27.84773 93.22372 6.04235 1.9614 -32.27119 7.66972 4.93268 45.5635 -104.74624 15.67588 -1.95192 43.71531 -1.4075 -11.7786 -19.74116 -6.11814 -2.65143 -3.49965 48.49207 4.78949 7.39918 -24.95777 -6.40192 1.71145 3.06951
-0.01426 -0.00152 0.01348 22.02007 -30.89688 -3.91569 48.70283 3.16674 -5.30735 0.17393 -0.54718 -1.33042 -17.35283 -11.81248 -30.09957 28.0738 95.01114 6.75785 2.18844 -31.17978 7.32762 5.78779 45.44466 -104.62695 15.51769 -1.96054 43.77143 -1.46556 -11.88353 -19.75289 -6.1132 -2.639 -3.49387 48.54821 4.70709 7.20382 -24.93839 -6.41762 1.72689 3.07922
